<?xml version="1.0" encoding="UTF-8" standalone="no"?>
<svg
   width="120"
   height="50"
   version="1.1"
   id="svg8"
   sodipodi:docname="dark-logo.svg"
   inkscape:version="1.1 (c68e22c387, 2021-05-23)"
   xmlns:inkscape="http://www.inkscape.org/namespaces/inkscape"
   xmlns:sodipodi="http://sodipodi.sourceforge.net/DTD/sodipodi-0.dtd"
   xmlns="http://www.w3.org/2000/svg"
   xmlns:svg="http://www.w3.org/2000/svg">
  <defs
     id="defs12">
    <rect
       x="-34.067333"
       y="-39.745224"
       width="218.38036"
       height="139.76341"
       id="rect7375" />
  </defs>
  <sodipodi:namedview
     id="namedview10"
     pagecolor="#ffffff"
     bordercolor="#999999"
     borderopacity="1"
     inkscape:pageshadow="0"
     inkscape:pageopacity="0"
     inkscape:pagecheckerboard="0"
     showgrid="false"
     inkscape:zoom="3.2379598"
     inkscape:cx="-10.963694"
     inkscape:cy="73.966329"
     inkscape:window-width="1920"
     inkscape:window-height="1017"
     inkscape:window-x="-8"
     inkscape:window-y="-8"
     inkscape:window-maximized="1"
     inkscape:current-layer="svg8"
     fit-margin-top="0"
     fit-margin-left="0"
     fit-margin-right="0"
     fit-margin-bottom="0" />
  <g
     aria-label="KNP3D"
     transform="scale(1.1154341,0.89651195)"
     id="text15793"
     style="font-weight:bold;font-size:32.1165px;line-height:1.25;font-family:NanumGothic;-inkscape-font-specification:'NanumGothic Bold';letter-spacing:-3.51272px;stroke-width:1.00363">
    <path
       d="m 23.737711,40.074066 q -0.353281,0 -0.449631,-0.06423 -0.09635,-0.06423 -0.321165,-0.417514 l -6.455416,-9.859766 -1.734291,1.92699 v 7.80431 q 0,0.385398 -0.160583,0.513864 -0.160583,0.128466 -0.481748,0.128466 h -3.083184 q -0.353281,0 -0.513864,-0.128466 -0.128466,-0.128466 -0.128466,-0.513864 V 16.018807 q 0,-0.64233 0.64233,-0.64233 h 3.083184 q 0.642331,0 0.642331,0.64233 v 9.506484 l 7.547377,-9.667067 q 0.160583,-0.160582 0.256932,-0.256932 0.09635,-0.09635 0.385398,-0.09635 h 3.597048 q 1.124078,0 0.449631,0.802912 l -7.932775,10.020349 8.767804,13.071416 q 0.481748,0.674446 -0.417514,0.674446 z"
       id="path25811"
       style="fill:#ffffff" />
    <path
       d="m 42.19264,40.106183 q -0.385398,0 -0.513864,-0.09635 Q 41.55031,39.9456 41.357611,39.592319 L 32.075942,22.666923 v 16.668464 q 0,0.513864 -0.09635,0.64233 -0.09635,0.128466 -0.610214,0.128466 h -2.922601 q -0.481748,0 -0.610214,-0.128466 -0.128466,-0.128466 -0.128466,-0.64233 V 16.179389 q 0,-0.54598 0.09635,-0.706563 0.128466,-0.160582 0.706563,-0.160582 h 3.179533 q 0.385398,0 0.513864,0.09635 0.128466,0.09635 0.353282,0.513864 l 9.153203,16.79693 V 16.08304 q 0,-0.481748 0.09635,-0.610214 0.128466,-0.160582 0.610214,-0.160582 h 2.890485 q 0.578097,0 0.674446,0.160582 0.09635,0.160583 0.09635,0.610214 v 23.123881 q 0,0.610213 -0.128466,0.738679 -0.128466,0.160583 -0.706563,0.160583 z"
       id="path25813"
       style="fill:#ffffff" />
    <path
       d="m 52.104596,30.503349 v 8.960504 q 0,0.449631 -0.160583,0.54598 -0.128466,0.128466 -0.481747,0.128466 h -3.083184 q -0.321165,0 -0.481748,-0.128466 -0.160582,-0.09635 -0.160582,-0.54598 v -23.41293 q 0,-0.385398 0.160582,-0.513864 0.192699,-0.128466 0.449631,-0.128466 h 6.423301 q 1.766407,0 3.21165,0.449631 1.477359,0.449631 2.505087,1.38101 1.027728,0.931379 1.573708,2.344505 0.578097,1.381009 0.578097,3.307999 0,1.862757 -0.64233,3.275883 -0.610213,1.413126 -1.702174,2.376621 -1.059845,0.963495 -2.56932,1.477359 -1.477359,0.481748 -3.21165,0.481748 z m 0,-11.112309 v 7.129863 h 2.119689 q 1.92699,0 2.954718,-0.867146 1.027728,-0.867145 1.027728,-2.794135 0,-1.702175 -0.835029,-2.56932 Q 56.56879,19.39104 55.219897,19.39104 Z"
       id="path25815"
       style="fill:#ffffff" />
    <path
       d="m 77.207663,33.040552 q 0,1.637942 -0.610213,3.051068 -0.578097,1.413126 -1.766408,2.440854 -1.156194,1.059845 -2.890485,1.637942 -1.702174,0.578097 -3.950329,0.578097 -1.348894,0 -2.890486,-0.256932 -1.541592,-0.224816 -2.697786,-0.674447 -0.449631,-0.160582 -0.54598,-0.385398 -0.09635,-0.224815 -0.03212,-0.578097 l 0.321165,-2.56932 q 0.06423,-0.449631 0.224816,-0.54598 0.192699,-0.09635 0.706563,0.06423 0.770796,0.256932 1.766407,0.513864 0.995612,0.256932 1.766408,0.321165 1.091961,0.09635 2.183922,-0.03212 1.091961,-0.128466 1.959107,-0.54598 0.867145,-0.449631 1.381009,-1.220428 0.545981,-0.770796 0.545981,-1.92699 0,-0.674446 -0.321165,-1.316776 -0.321165,-0.674447 -0.995612,-1.188311 -0.64233,-0.513864 -1.637941,-0.835029 -0.963495,-0.321165 -2.280272,-0.321165 h -1.734291 q -0.417515,0 -0.545981,-0.128466 -0.09635,-0.128466 -0.09635,-0.513864 v -2.633553 q 0,-0.449631 0.09635,-0.54598 0.128466,-0.128466 0.545981,-0.128466 h 1.670058 q 0.674447,0 1.477359,-0.192699 0.835029,-0.192699 1.541592,-0.610214 0.73868,-0.417514 1.220427,-1.027728 0.513864,-0.64233 0.513864,-1.509475 0,-1.220427 -0.867145,-2.055456 -0.835029,-0.835029 -2.56932,-0.835029 -1.124078,0 -2.408738,0.321165 -1.28466,0.321165 -2.312388,0.770796 -0.449631,0.192699 -0.706563,0.160582 -0.256932,-0.06423 -0.321165,-0.513864 l -0.321165,-2.665669 q -0.06423,-0.321165 0.03212,-0.481748 0.128466,-0.160582 0.610214,-0.353282 1.348893,-0.54598 2.794135,-0.899262 1.445243,-0.385398 2.826253,-0.385398 1.413126,0 2.826252,0.385398 1.413126,0.385398 2.537203,1.188311 1.124078,0.770796 1.798524,2.02334 0.706563,1.220427 0.706563,2.890485 0,0.931378 -0.353281,1.798524 -0.321165,0.867145 -0.931379,1.637941 -0.578097,0.73868 -1.413126,1.348893 -0.802912,0.578097 -1.766407,0.963495 2.440854,0.931379 3.661281,2.537204 1.252543,1.605825 1.252543,3.243766 z"
       style="fill:#0068b4"
       id="path25817" />
    <path
       d="m 93.125391,37.247814 q -0.867145,0.73868 -1.991223,1.252544 -1.124077,0.54598 -2.376621,0.899262 -1.220427,0.353281 -2.56932,0.513864 -1.316777,0.192699 -2.601437,0.192699 h -4.046679 q -0.353281,0 -0.54598,-0.03212 -0.192699,-0.03212 -0.289049,-0.128466 -0.09635,-0.09635 -0.128466,-0.289048 0,-0.192699 0,-0.545981 V 16.468438 q 0,-0.385398 0,-0.610214 0.03212,-0.224815 0.128466,-0.321165 0.09635,-0.09635 0.289049,-0.128466 0.224815,-0.03212 0.610213,-0.03212 h 5.556155 q 6.166368,0 9.345902,3.629165 1.348893,1.573708 1.991223,3.661281 0.674446,2.087572 0.674446,5.010174 0,3.018951 -1.059844,5.524038 -1.027728,2.472971 -2.986835,4.046679 z M 91.166285,21.767661 Q 90.234906,20.57935 88.693314,19.93702 87.183838,19.29469 85.064149,19.29469 H 82.94446 v 16.861163 h 1.059845 q 1.894873,0 3.500698,-0.54598 1.605826,-0.545981 2.76202,-1.637942 1.156194,-1.091961 1.798524,-2.66567 0.674446,-1.605825 0.674446,-3.725514 0,-3.75763 -1.573708,-5.813086 z"
       id="path25819"
       style="fill:#ffffff" />
  </g>
  <text
     xml:space="preserve"
     id="text7373"
     style="font-size:40px;line-height:1.25;font-family:sans-serif;letter-spacing:100px;white-space:pre;shape-inside:url(#rect7375)"
     transform="translate(-0.37685406,-0.517948)" />
</svg>
