<?xml version="1.0" encoding="UTF-8"?>
<svg xmlns="http://www.w3.org/2000/svg" xmlns:xlink="http://www.w3.org/1999/xlink" width="42px" height="42px" viewBox="0 0 42 42" version="1.1">
<g id="surface1">
<path style=" stroke:none;fill-rule:nonzero;fill:rgb(75.294118%,22.352941%,16.862745%);fill-opacity:1;" d="M 21.054688 3.5 C 14.289062 3.5 8.804688 8.925781 8.804688 15.75 C 8.804688 18.023438 9.507812 20.300781 10.71875 22.226562 C 10.773438 22.398438 10.824219 22.398438 10.882812 22.574219 L 18.480469 36.578125 C 18.839844 37.625 19.851562 38.5 21 38.5 C 22.148438 38.5 23.105469 37.625 23.460938 36.578125 L 31.9375 21.351562 C 32.8125 19.601562 33.304688 17.675781 33.304688 15.75 C 33.304688 8.925781 27.816406 3.5 21.054688 3.5 Z M 21 10.328125 C 24.382812 10.328125 27.125 13.125 27.125 16.449219 C 27.125 19.949219 24.382812 22.574219 21 22.574219 C 17.617188 22.574219 14.875 19.949219 14.875 16.449219 C 14.875 13.125 17.617188 10.328125 21 10.328125 Z M 21 10.328125 "/>
<path style=" stroke:none;fill-rule:nonzero;fill:rgb(90.588235%,29.803922%,23.529412%);fill-opacity:1;" d="M 21.054688 1.804688 C 14.289062 1.804688 8.804688 7.292969 8.804688 14.054688 C 8.804688 16.472656 9.507812 18.71875 10.71875 20.617188 C 10.773438 20.710938 10.824219 20.800781 10.882812 20.894531 L 18.480469 35 C 18.839844 36.027344 19.851562 36.804688 21 36.804688 C 22.148438 36.804688 23.105469 36.027344 23.460938 35 L 31.9375 19.6875 C 32.8125 18.003906 33.304688 16.082031 33.304688 14.054688 C 33.304688 7.292969 27.816406 1.804688 21.054688 1.804688 Z M 21 8.75 C 24.382812 8.75 27.125 11.492188 27.125 14.875 C 27.125 18.257812 24.382812 21 21 21 C 17.617188 21 14.875 18.257812 14.875 14.875 C 14.875 11.492188 17.617188 8.75 21 8.75 Z M 21 8.75 "/>
</g>
</svg>
